<svg id="Layer_4" data-name="Layer 4" xmlns="http://www.w3.org/2000/svg" viewBox="0 0 128.82 45.53"><defs><style>.cls-1{fill:#fff;}.cls-2{fill:#00247d;}.cls-3{fill:#f7f7f9;}</style></defs><title>DS and AI.Lab white.curve.no line</title><path class="cls-1" d="M105.63,31.87h1.54V44.05H111v1.3h-5.34Z" transform="translate(0 0)"/><path class="cls-1" d="M116.15,45.35l-.1-1H116a2.16,2.16,0,0,1-1.92,1.18c-1.3,0-2.3-1.1-2.3-2.76,0-2.42,1.94-3.5,4.12-3.52V39c0-1.3-.32-2.2-1.54-2.2a2.94,2.94,0,0,0-1.6.5l-.34-1.08a4.12,4.12,0,0,1,2.26-.64c1.94,0,2.78,1.28,2.78,3.46v4.18a14.73,14.73,0,0,0,.1,2.2Zm-.22-5c-.8,0-2.66.14-2.66,2.24,0,1.26.64,1.72,1.18,1.72a1.65,1.65,0,0,0,1.44-1.46,2.44,2.44,0,0,0,0-.54Z" transform="translate(0 0)"/><path class="cls-1" d="M119.51,45.35c0-.56.08-1.66.08-2.32V31.51h1.54v5.3h0a2.15,2.15,0,0,1,2-1.3c1.5,0,2.64,1.74,2.64,4.9,0,3.5-1.44,5.1-2.94,5.1a2,2,0,0,1-1.92-1.42h-.06l-.1,1.26Zm1.62-3.42a2,2,0,0,0,.06.6c.36,1.44,1,1.7,1.44,1.7,1.24,0,1.68-1.68,1.68-3.74s-.46-3.66-1.7-3.66c-.72,0-1.32.9-1.44,1.72a3.86,3.86,0,0,0,0,.68Z" transform="translate(0 0)"/><path class="cls-1" d="M126.81,44.35a1.07,1.07,0,0,1,1-1.16h0a1,1,0,0,1,1,1,1,1,0,0,1,0,.17A1,1,0,0,1,128,45.5h-.17a1,1,0,0,1-1-1.09Z" transform="translate(0 0)"/><path class="cls-2" d="M100.88,20.58,90.21,2.1A4.19,4.19,0,0,0,86.58,0H65.24A4.2,4.2,0,0,0,61.6,2.1L53.18,16.69a2.84,2.84,0,0,1-3.88,1,2.88,2.88,0,0,1-1-1L39.83,2.08A4.16,4.16,0,0,0,36.22,0H14.85a4.17,4.17,0,0,0-3.61,2.08L.56,20.59a4.15,4.15,0,0,0,0,4.17L11.24,43.27a4.17,4.17,0,0,0,3.61,2.08H36.22a4.16,4.16,0,0,0,3.61-2.08l9.73-16.84a1.34,1.34,0,0,1,2.33,0L61.6,43.26a4.23,4.23,0,0,0,3.64,2.09H86.58a4.2,4.2,0,0,0,3.63-2.09l10.67-18.49A4.18,4.18,0,0,0,100.88,20.58Z" transform="translate(0 0)"/><path class="cls-3" d="M9.9,13.44a31,31,0,0,1,5.18-.37c3.32,0,5.62.56,7.29,1.7,2.26,1.47,3.43,4,3.43,7.7s-1.36,6.6-3.66,8.07c-1.76,1.25-4.37,1.84-8,1.84-1.6,0-3.2-.11-4.21-.2ZM15,29.29a4.54,4.54,0,0,0,.9.06c2.46,0,4.6-1.75,4.6-7,0-3.91-1.4-6.29-4.48-6.29a4.19,4.19,0,0,0-1,.09Z" transform="translate(0 0)"/><path class="cls-3" d="M28.43,28.44a13,13,0,0,0,4.33.74c2.42,0,3.59-.91,3.59-2.15,0-1.39-1.17-2.07-3.4-3.12-3.58-1.58-5-3.59-5-5.32C28,15.53,30.81,13,36.31,13a11.83,11.83,0,0,1,4.12.71l-.82,3.2a8.2,8.2,0,0,0-3.35-.65c-2.19,0-3.24,1-3.24,2s.78,1.73,3.63,3c3.47,1.53,4.75,3.45,4.75,5.46,0,3.49-3.54,5.78-8.69,5.78a15.4,15.4,0,0,1-5-.76Z" transform="translate(0 0)"/><path class="cls-3" d="M68.43,27.88l-1.17,4.36h-5L68,13.15h6.12l5.11,19.09h-5l-1.13-4.36ZM72.68,25l-.86-4c-.27-1.16-.62-3.06-.85-4.34h-.12c-.27,1.28-.66,3.26-.94,4.36l-1,4Z" transform="translate(0 0)"/><path class="cls-3" d="M87.25,13.15V32.24H82.14V13.15Z" transform="translate(0 0)"/></svg>