<svg id="Layer_4" data-name="Layer 4" xmlns="http://www.w3.org/2000/svg" viewBox="0 0 128.85 45.51"><defs><style>.cls-1{fill:#00247d;}.cls-2{fill:#f7f7f9;}</style></defs><title>DS and AI Lab.red.curve.no line</title><path class="cls-1" d="M258.2,170.18h1.54v12.18h3.8v1.3H258.2Z" transform="translate(-152.57 -138.31)"/><path class="cls-1" d="M268.72,183.66l-.1-1h-.06a2.17,2.17,0,0,1-1.92,1.18c-1.3,0-2.3-1.1-2.3-2.76,0-2.42,1.94-3.5,4.12-3.52v-.3c0-1.3-.32-2.2-1.54-2.2a2.92,2.92,0,0,0-1.6.5l-.34-1.08a4.17,4.17,0,0,1,2.26-.64c1.94,0,2.78,1.28,2.78,3.46v4.18a15.34,15.34,0,0,0,.1,2.2Zm-.22-5c-.8,0-2.66.14-2.66,2.24,0,1.26.64,1.72,1.18,1.72s1.26-.5,1.44-1.46a2.55,2.55,0,0,0,0-.54Z" transform="translate(-152.57 -138.31)"/><path class="cls-1" d="M272.08,183.66c0-.56.08-1.66.08-2.32V169.82h1.54v5.3h0a2.16,2.16,0,0,1,2-1.3c1.5,0,2.64,1.74,2.64,4.9,0,3.5-1.44,5.1-2.94,5.1a2,2,0,0,1-1.92-1.42h-.06l-.1,1.26Zm1.62-3.42a1.85,1.85,0,0,0,.06.6c.36,1.44,1,1.7,1.44,1.7,1.24,0,1.68-1.68,1.68-3.74s-.46-3.66-1.7-3.66c-.72,0-1.32.9-1.44,1.72a3.88,3.88,0,0,0,0,.68Z" transform="translate(-152.57 -138.31)"/><path class="cls-1" d="M279.38,182.66a1.07,1.07,0,0,1,1-1.16,1,1,0,0,1,1,1.16,1,1,0,0,1-1,1.16A1.05,1.05,0,0,1,279.38,182.66Z" transform="translate(-152.57 -138.31)"/><path class="cls-1" d="M253.45,158.89l-10.67-18.48a4.19,4.19,0,0,0-3.63-2.1H217.81a4.2,4.2,0,0,0-3.64,2.1L205.75,155a2.84,2.84,0,0,1-4.92,0l-8.43-14.61a4.16,4.16,0,0,0-3.61-2.08H167.42a4.17,4.17,0,0,0-3.61,2.08L153.13,158.9a4.15,4.15,0,0,0,0,4.17l10.68,18.51a4.17,4.17,0,0,0,3.61,2.08h21.37a4.16,4.16,0,0,0,3.61-2.08l9.73-16.84a1.34,1.34,0,0,1,2.33,0l9.71,16.83a4.22,4.22,0,0,0,3.64,2.09h21.34a4.2,4.2,0,0,0,3.63-2.09l10.67-18.49A4.18,4.18,0,0,0,253.45,158.89Z" transform="translate(-152.57 -138.31)"/><path class="cls-2" d="M162.47,151.75a31.48,31.48,0,0,1,5.18-.37c3.32,0,5.62.56,7.29,1.7,2.26,1.47,3.43,4,3.43,7.7s-1.36,6.6-3.66,8.07c-1.76,1.25-4.37,1.84-8,1.84-1.6,0-3.2-.11-4.21-.2Zm5.1,15.85a4.39,4.39,0,0,0,.9.06c2.46,0,4.6-1.75,4.6-7,0-3.91-1.4-6.29-4.48-6.29a3.8,3.8,0,0,0-1,.09Z" transform="translate(-152.57 -138.31)"/><path class="cls-2" d="M181,166.75a13,13,0,0,0,4.33.74c2.42,0,3.59-.91,3.59-2.15,0-1.39-1.17-2.07-3.4-3.12-3.58-1.58-4.95-3.59-4.95-5.32,0-3.06,2.81-5.61,8.31-5.61A11.81,11.81,0,0,1,193,152l-.82,3.2a8.1,8.1,0,0,0-3.35-.65c-2.19,0-3.24,1-3.24,2s.78,1.73,3.63,3c3.47,1.53,4.75,3.45,4.75,5.46,0,3.49-3.54,5.78-8.69,5.78a15.52,15.52,0,0,1-5-.76Z" transform="translate(-152.57 -138.31)"/><path class="cls-2" d="M221,166.19l-1.17,4.36h-5l5.69-19.09h6.12l5.11,19.09h-5l-1.13-4.36Zm4.25-2.89-.86-4c-.27-1.16-.62-3.06-.85-4.34h-.12c-.27,1.28-.66,3.26-.94,4.36l-1,4Z" transform="translate(-152.57 -138.31)"/><path class="cls-2" d="M239.82,151.46v19.09h-5.11V151.46Z" transform="translate(-152.57 -138.31)"/></svg>